# xmcd
#
# Track frame offsets:
#  183
#  14450
#  23700
#  38973
#  50018
#  64855
#  76525
#  86385
#  104670
#  125893
#  142675
#
# Disc length: 2197 seconds
#
# Revision: 0
# Processed by: cddbd v1.4PL0 Copyright (c) Steve Scherf et al.
# Submitted via: AltoMP3_Maker 3.0
#
DISCID=8a08930b
DTITLE=Pearl Bailey - Come On Let's Play With Pearlie Mae
DYEAR=1900
DGENRE=
TTITLE0=Small World
TTITLE1=Let Me Entertain You
TTITLE2=A Woman's Work Is Never Done
TTITLE3=A Lady Never Forgets That She's A Lady
TTITLE4=Put On Your Old Grey Bonnet
TTITLE5=You Gotta Dance
TTITLE6=Come On Let's Play With Pearlie Mae
TTITLE7=The Goodbye Song
TTITLE8=Please Don't Talk About Me When I'm Gone
TTITLE9=Medley: Am I Blue/Poor Butterfly 
TTITLE10=Go Back Where You Stayed Last Night
EXTD=
EXTT0=
EXTT1=
EXTT2=
EXTT3=
EXTT4=
EXTT5=
EXTT6=
EXTT7=
EXTT8=
EXTT9=
EXTT10=
PLAYORDER=
